<?xml version="1.0" encoding="utf-8"?>
<svg viewBox="0 0 512 512" xmlns="http://www.w3.org/2000/svg">
  <path style="fill:#F75534;" d="M482.358,294.661C482.358,436.046,381.015,512,256,512S29.642,436.046,29.642,294.661 S103.261,0,256,0S482.358,153.276,482.358,294.661z" transform="matrix(0.9999999999999999, 0, 0, 0.9999999999999999, -7.105427357601002e-15, -3.552713678800501e-15)"/>
  <path style="fill:#BD391E;" d="M48.685,294.661c0-138.41,70.567-288.192,216.836-294.434C262.378,0.093,259.213,0,256,0 C103.261,0,29.642,153.276,29.642,294.661S130.986,512,256,512c3.191,0,6.362-0.063,9.521-0.161 C144.925,508.067,48.685,432.437,48.685,294.661z" transform="matrix(0.9999999999999999, 0, 0, 0.9999999999999999, -7.105427357601002e-15, -3.552713678800501e-15)"/>
  <path style="fill:#FFE8D1;" d="M430.387,251.235c-6.586,86.685-100.729,61.494-174.382,60.621 c-73.663,0.874-167.796,26.064-174.392-60.621c-2.996-39.367,2.764-70.521,9.944-92.804c7.849-24.358,30.672-40.755,56.263-40.755 H364.18c25.591,0,48.413,16.398,56.263,40.755C427.623,180.715,433.383,211.869,430.387,251.235z" transform="matrix(0.9999999999999999, 0, 0, 0.9999999999999999, -7.105427357601002e-15, -3.552713678800501e-15)"/>
  <g transform="matrix(0.9999999999999999, 0, 0, 0.9999999999999999, -7.105427357601002e-15, -3.552713678800501e-15)">
    <path style="fill:#EBC7A4;" d="M100.476,251.235c-2.996-39.367,2.764-70.521,9.944-92.804 c7.849-24.358,30.672-40.755,56.263-40.755H147.82c-25.591,0-48.413,16.398-56.263,40.755c-7.181,22.282-12.94,53.436-9.944,92.804 c4.421,58.096,48.162,65.939,98.707,64.533C138.163,314.367,104.335,301.951,100.476,251.235z"/>
    <path style="fill:#EBC7A4;" d="M274.869,311.856c-3.11,0.037-6.258,0.12-9.432,0.233c28.025,1,58.256,4.571,85.112,3.678 C325.677,315.075,299.158,312.144,274.869,311.856z"/>
  </g>
  <g style="" transform="matrix(0.5877479910850525, 0, 0, 0.9999999999999999, 54.58061218261717, -3.552713678800501e-15)">
    <circle style="fill:#F7EDE3;" cx="167.675" cy="256.836" r="35.279"/>
  </g>
  <g transform="matrix(0.9999999999999999, 0, 0, 0.9999999999999999, -7.105427357601002e-15, -3.552713678800501e-15)">
    <path style="fill: rgb(54, 41, 40); transform-box: fill-box; transform-origin: 50% 50%;" d="M 276.579 177.407 C 276.579 177.407 308.702 176.098 353.102 128.621 C 353.102 128.621 363.993 109.895 382.34 125.612 C 393.646 135.296 395.915 154.453 360.962 177 C 304.706 213.287 276.579 177.407 276.579 177.407 Z" transform="matrix(0.562789, 0.8266, -0.8266, 0.562789, -0.000008, 0.000004)"/>
    <path style="fill: rgb(54, 41, 40); transform-box: fill-box; transform-origin: 50% 50%;" d="M 238.509 178.346 C 238.509 178.346 206.386 177.037 161.986 129.56 C 161.986 129.56 151.095 110.834 132.748 126.551 C 121.442 136.235 119.173 155.392 154.126 177.939 C 210.382 214.226 238.509 178.346 238.509 178.346 Z" transform="matrix(0.538962, -0.84233, 0.84233, 0.538962, 0.000006, 0.000003)"/>
  </g>
  <g transform="matrix(0.9999999999999999, 0, 0, 0.9999999999999999, -7.105427357601002e-15, -3.552713678800501e-15)">
    <path style="fill:#FFE666;" d="M242.942,488.831c0,0-24.763-28.444-31.186-122.62c0,0,2.735-31.605-21.432-28.073 c-14.892,2.177-28.361,23.291-14.276,79.614C198.717,508.404,242.942,488.831,242.942,488.831z"/>
    <path style="fill:#FFE666;" d="M151.181,454.513c0,0-20.547-23.602-25.877-101.745c0,0,2.27-26.225-17.783-23.294 c-12.357,1.806-23.533,19.325-11.846,66.061C114.484,470.754,151.181,454.513,151.181,454.513z"/>
    <path style="fill:#FFE666;" d="M269.058,488.831c0,0,24.763-28.444,31.186-122.62c0,0-2.735-31.605,21.432-28.073 c14.892,2.177,28.361,23.291,14.276,79.614C313.283,508.404,269.058,488.831,269.058,488.831z"/>
    <path style="fill:#FFE666;" d="M360.819,454.513c0,0,20.547-23.602,25.877-101.745c0,0-2.27-26.225,17.783-23.294 c12.357,1.806,23.533,19.325,11.846,66.061C397.516,470.754,360.819,454.513,360.819,454.513z"/>
  </g>
  <g transform="matrix(0.9999999999999999, 0, 0, 0.9999999999999999, -7.105427357601002e-15, -3.552713678800501e-15)">
    <path style="fill:#362928;" d="M344.324,300.199c-23.91,0-43.363-19.453-43.363-43.363c0-23.91,19.453-43.363,43.363-43.363 s43.363,19.453,43.363,43.363C387.687,280.746,368.235,300.199,344.324,300.199z M344.324,229.641 c-14.994,0-27.195,12.199-27.195,27.195s12.2,27.194,27.195,27.194s27.195-12.199,27.195-27.194S359.318,229.641,344.324,229.641z"/>
    <circle style="fill:#362928;" cx="388.723" cy="203.389" r="8.084"/>
    <circle style="fill:#362928;" cx="405.577" cy="235.144" r="8.084"/>
    <circle style="fill:#362928;" cx="123.277" cy="203.389" r="8.084"/>
    <circle style="fill:#362928;" cx="106.423" cy="235.144" r="8.084"/>
    <g transform="matrix(1, 0, 0, 1, -458.920166, -6.598802)">
      <g>
        <path style="fill: rgb(54, 41, 40); transform-box: fill-box; transform-origin: 50% 50%;" d="M 627.455 306.16 C 603.545 306.16 584.092 286.707 584.092 262.797 C 584.092 238.887 603.545 219.435 627.455 219.435 C 651.365 219.435 670.818 238.887 670.818 262.797 C 670.818 286.707 651.365 306.16 627.455 306.16 Z" transform="matrix(0.621298, -0.783574, 0.783574, 0.621298, -0.000007, 0.000012)"/>
        <ellipse style="transform-box: fill-box; transform-origin: 27.8881% 18.6682%; fill: rgb(255, 255, 255);" cx="719.755" cy="243.48" rx="11.376" ry="6.729" transform="matrix(0.821805, -0.569769, 0.569769, 0.821805, -83.511634, 39.739067)"/>
      </g>
      <ellipse style="transform-box: fill-box; transform-origin: 50% 50%; fill: rgb(255, 255, 255);" cx="784.926" cy="224.222" rx="25.255" ry="15.267" transform="matrix(0.836133, -0.548527, 0.548527, 0.836133, -168.415804, 22.227659)"/>
    </g>
  </g>
  <g transform="matrix(0.9999999999999999, 0, 0, 0.9999999999999999, -282.8302307128906, -5.585911750793457)">
    <g>
      <path style="fill: rgb(54, 41, 40); transform-box: fill-box; transform-origin: 50% 50%;" d="M 627.455 306.16 C 603.545 306.16 584.092 286.707 584.092 262.797 C 584.092 238.887 603.545 219.435 627.455 219.435 C 651.365 219.435 670.818 238.887 670.818 262.797 C 670.818 286.707 651.365 306.16 627.455 306.16 Z" transform="matrix(0.621298, -0.783574, 0.783574, 0.621298, -0.000007, 0.000012)"/>
      <ellipse style="transform-box: fill-box; transform-origin: 27.8881% 18.6682%; fill: rgb(255, 255, 255);" cx="719.755" cy="243.48" rx="11.376" ry="6.729" transform="matrix(0.821805, -0.569769, 0.569769, 0.821805, -83.511634, 39.739067)"/>
    </g>
    <ellipse style="transform-box: fill-box; transform-origin: 50% 50%; fill: rgb(255, 255, 255);" cx="784.926" cy="224.222" rx="25.255" ry="15.267" transform="matrix(0.836133, -0.548527, 0.548527, 0.836133, -168.415804, 22.227659)"/>
  </g>
</svg>